# Blender v2.76 (sub 0) OBJ File: ''
# www.blender.org
mtllib alacena.mtl
o Text
v 1.727302 0.000000 -0.256918
v 1.673502 0.000000 -0.256918
v 1.445042 0.000000 0.277973
v 1.523015 0.000000 0.277973
v 1.590071 0.000000 0.121248
v 1.816191 0.000000 0.121248
v 1.887146 0.000000 0.277973
v 1.965118 0.000000 0.277973
v 1.699233 0.000000 -0.139959
v 1.785002 0.000000 0.052632
v 1.619700 0.000000 0.052632
v 1.386563 0.000000 -0.253799
v 1.314829 0.000000 -0.253799
v 1.314829 0.000000 0.157895
v 0.954596 0.000000 -0.253799
v 0.893778 0.000000 -0.253799
v 0.893778 0.000000 0.277973
v 0.965512 0.000000 0.277973
v 0.965512 0.000000 -0.131382
v 1.321066 0.000000 0.277973
v 1.386563 0.000000 0.277973
v 0.806449 0.000000 -0.253799
v 0.504696 0.000000 -0.253799
v 0.504696 0.000000 0.277973
v 0.813466 0.000000 0.277973
v 0.813466 0.000000 0.209357
v 0.581109 0.000000 0.209357
v 0.581109 0.000000 0.044055
v 0.798652 0.000000 0.044055
v 0.798652 0.000000 -0.024560
v 0.581109 0.000000 -0.024560
v 0.581109 0.000000 -0.185183
v 0.806449 0.000000 -0.185183
v 0.405671 0.000000 -0.217152
v 0.387890 0.000000 -0.224399
v 0.370767 0.000000 -0.230945
v 0.354246 0.000000 -0.236803
v 0.338268 0.000000 -0.241988
v 0.322778 0.000000 -0.246511
v 0.307718 0.000000 -0.250388
v 0.293032 0.000000 -0.253631
v 0.278663 0.000000 -0.256254
v 0.264553 0.000000 -0.258270
v 0.250647 0.000000 -0.259694
v 0.236886 0.000000 -0.260538
v 0.223215 0.000000 -0.260816
v 0.181934 0.000000 -0.258391
v 0.142864 0.000000 -0.251287
v 0.106269 0.000000 -0.239764
v 0.072411 0.000000 -0.224083
v 0.041553 0.000000 -0.204503
v 0.013957 0.000000 -0.181285
v -0.010114 0.000000 -0.154687
v -0.030397 0.000000 -0.124971
v -0.046630 0.000000 -0.092396
v -0.058550 0.000000 -0.057222
v -0.065894 0.000000 -0.019709
v -0.068401 0.000000 0.019884
v -0.066567 0.000000 0.048523
v -0.061008 0.000000 0.078237
v -0.051637 0.000000 0.108346
v -0.038367 0.000000 0.138171
v -0.021112 0.000000 0.167032
v 0.000215 0.000000 0.194250
v 0.025700 0.000000 0.219145
v 0.055431 0.000000 0.241037
v 0.089493 0.000000 0.259247
v 0.127974 0.000000 0.273096
v 0.170960 0.000000 0.281903
v 0.218537 0.000000 0.284990
v 0.238855 0.000000 0.284591
v 0.258144 0.000000 0.283420
v 0.276480 0.000000 0.281518
v 0.293939 0.000000 0.278926
v 0.310597 0.000000 0.275683
v 0.326529 0.000000 0.271832
v 0.341811 0.000000 0.267412
v 0.356519 0.000000 0.262465
v 0.370729 0.000000 0.257030
v 0.384517 0.000000 0.251148
v 0.397958 0.000000 0.244860
v 0.411129 0.000000 0.238207
v 0.411129 0.000000 0.154776
v 0.396012 0.000000 0.164147
v 0.380705 0.000000 0.172760
v 0.365247 0.000000 0.180605
v 0.349675 0.000000 0.187669
v 0.334027 0.000000 0.193943
v 0.318342 0.000000 0.199415
v 0.302656 0.000000 0.204076
v 0.287008 0.000000 0.207913
v 0.271436 0.000000 0.210916
v 0.255978 0.000000 0.213075
v 0.240672 0.000000 0.214378
v 0.225555 0.000000 0.214815
v 0.194458 0.000000 0.213120
v 0.165213 0.000000 0.208140
v 0.137982 0.000000 0.200037
v 0.112928 0.000000 0.188969
v 0.090213 0.000000 0.175096
v 0.070000 0.000000 0.158577
v 0.052451 0.000000 0.139574
v 0.037728 0.000000 0.118245
v 0.025994 0.000000 0.094750
v 0.017412 0.000000 0.069248
v 0.012143 0.000000 0.041901
v 0.010351 0.000000 0.012867
v 0.012201 0.000000 -0.015707
v 0.017614 0.000000 -0.042819
v 0.026384 0.000000 -0.068273
v 0.038306 0.000000 -0.091876
v 0.053173 0.000000 -0.113432
v 0.070780 0.000000 -0.132747
v 0.090921 0.000000 -0.149625
v 0.113390 0.000000 -0.163871
v 0.137982 0.000000 -0.175291
v 0.164491 0.000000 -0.183689
v 0.192711 0.000000 -0.188871
v 0.222436 0.000000 -0.190641
v 0.237730 0.000000 -0.190282
v 0.252849 0.000000 -0.189194
v 0.267842 0.000000 -0.187364
v 0.282763 0.000000 -0.184779
v 0.297662 0.000000 -0.181425
v 0.312591 0.000000 -0.177289
v 0.327601 0.000000 -0.172356
v 0.342744 0.000000 -0.166614
v 0.358071 0.000000 -0.160049
v 0.373634 0.000000 -0.152648
v 0.389483 0.000000 -0.144396
v 0.405671 0.000000 -0.135281
v -0.343644 0.000000 -0.256918
v -0.397444 0.000000 -0.256918
v -0.625903 0.000000 0.277973
v -0.547931 0.000000 0.277973
v -0.480875 0.000000 0.121248
v -0.254755 0.000000 0.121248
v -0.183800 0.000000 0.277973
v -0.105828 0.000000 0.277973
v -0.371714 0.000000 -0.139959
v -0.285944 0.000000 0.052632
v -0.451245 0.000000 0.052632
v -0.873856 0.000000 -0.253799
v -0.950269 0.000000 -0.253799
v -0.950269 0.000000 0.277973
v -0.633701 0.000000 0.277973
v -0.633701 0.000000 0.209357
v -0.873856 0.000000 0.209357
v -1.245784 0.000000 -0.256918
v -1.299585 0.000000 -0.256918
v -1.528044 0.000000 0.277973
v -1.450071 0.000000 0.277973
v -1.383015 0.000000 0.121248
v -1.156895 0.000000 0.121248
v -1.085940 0.000000 0.277973
v -1.007968 0.000000 0.277973
v -1.273854 0.000000 -0.139959
v -1.188084 0.000000 0.052632
v -1.353386 0.000000 0.052632
vn 0.000000 1.000000 0.000000
usemtl None
s off
f 3//1 1//1 2//1
f 3//1 9//1 1//1
f 9//1 8//1 1//1
f 3//1 11//1 9//1
f 10//1 8//1 9//1
f 3//1 5//1 11//1
f 5//1 10//1 11//1
f 5//1 6//1 10//1
f 6//1 8//1 10//1
f 3//1 4//1 5//1
f 7//1 8//1 6//1
f 17//1 15//1 16//1
f 17//1 19//1 15//1
f 19//1 14//1 15//1
f 14//1 12//1 13//1
f 14//1 21//1 12//1
f 17//1 18//1 19//1
f 20//1 14//1 19//1
f 20//1 21//1 14//1
f 24//1 32//1 23//1
f 32//1 22//1 23//1
f 32//1 33//1 22//1
f 24//1 31//1 32//1
f 24//1 28//1 31//1
f 28//1 30//1 31//1
f 28//1 29//1 30//1
f 24//1 27//1 28//1
f 24//1 26//1 27//1
f 24//1 25//1 26//1
f 47//1 45//1 46//1
f 47//1 44//1 45//1
f 47//1 43//1 44//1
f 48//1 43//1 47//1
f 48//1 42//1 43//1
f 48//1 41//1 42//1
f 48//1 40//1 41//1
f 49//1 40//1 48//1
f 49//1 39//1 40//1
f 49//1 38//1 39//1
f 49//1 37//1 38//1
f 50//1 37//1 49//1
f 50//1 36//1 37//1
f 50//1 35//1 36//1
f 50//1 34//1 35//1
f 51//1 34//1 50//1
f 51//1 121//1 34//1
f 121//1 122//1 34//1
f 122//1 123//1 34//1
f 123//1 124//1 34//1
f 124//1 125//1 34//1
f 125//1 126//1 34//1
f 126//1 127//1 34//1
f 127//1 128//1 34//1
f 128//1 129//1 34//1
f 129//1 130//1 34//1
f 130//1 131//1 34//1
f 52//1 119//1 51//1
f 119//1 120//1 51//1
f 120//1 121//1 51//1
f 52//1 118//1 119//1
f 52//1 117//1 118//1
f 52//1 116//1 117//1
f 53//1 116//1 52//1
f 53//1 115//1 116//1
f 53//1 114//1 115//1
f 54//1 114//1 53//1
f 54//1 113//1 114//1
f 54//1 112//1 113//1
f 55//1 112//1 54//1
f 55//1 111//1 112//1
f 56//1 111//1 55//1
f 56//1 110//1 111//1
f 56//1 109//1 110//1
f 57//1 109//1 56//1
f 57//1 108//1 109//1
f 58//1 108//1 57//1
f 58//1 107//1 108//1
f 58//1 106//1 107//1
f 59//1 106//1 58//1
f 59//1 105//1 106//1
f 60//1 105//1 59//1
f 60//1 104//1 105//1
f 61//1 104//1 60//1
f 61//1 103//1 104//1
f 62//1 103//1 61//1
f 62//1 102//1 103//1
f 63//1 102//1 62//1
f 63//1 101//1 102//1
f 84//1 82//1 83//1
f 63//1 100//1 101//1
f 85//1 82//1 84//1
f 64//1 100//1 63//1
f 86//1 82//1 85//1
f 64//1 99//1 100//1
f 87//1 82//1 86//1
f 88//1 82//1 87//1
f 64//1 98//1 99//1
f 89//1 82//1 88//1
f 65//1 98//1 64//1
f 90//1 82//1 89//1
f 65//1 97//1 98//1
f 91//1 82//1 90//1
f 92//1 82//1 91//1
f 65//1 96//1 97//1
f 93//1 82//1 92//1
f 94//1 82//1 93//1
f 65//1 95//1 96//1
f 95//1 82//1 94//1
f 65//1 82//1 95//1
f 66//1 82//1 65//1
f 66//1 81//1 82//1
f 67//1 81//1 66//1
f 67//1 80//1 81//1
f 67//1 79//1 80//1
f 67//1 78//1 79//1
f 68//1 78//1 67//1
f 68//1 77//1 78//1
f 68//1 76//1 77//1
f 68//1 75//1 76//1
f 69//1 75//1 68//1
f 69//1 74//1 75//1
f 69//1 73//1 74//1
f 69//1 72//1 73//1
f 70//1 72//1 69//1
f 70//1 71//1 72//1
f 134//1 132//1 133//1
f 134//1 140//1 132//1
f 140//1 139//1 132//1
f 134//1 142//1 140//1
f 141//1 139//1 140//1
f 134//1 136//1 142//1
f 136//1 141//1 142//1
f 136//1 137//1 141//1
f 137//1 139//1 141//1
f 134//1 135//1 136//1
f 138//1 139//1 137//1
f 145//1 143//1 144//1
f 145//1 148//1 143//1
f 145//1 147//1 148//1
f 145//1 146//1 147//1
f 151//1 149//1 150//1
f 151//1 157//1 149//1
f 157//1 156//1 149//1
f 151//1 159//1 157//1
f 158//1 156//1 157//1
f 151//1 153//1 159//1
f 153//1 158//1 159//1
f 153//1 154//1 158//1
f 154//1 156//1 158//1
f 151//1 152//1 153//1
f 155//1 156//1 154//1
