# Blender v2.76 (sub 0) OBJ File: ''
# www.blender.org
mtllib horno.mtl
o Text
v 1.047351 0.000000 0.012087
v 1.049615 0.000000 0.047759
v 1.056300 0.000000 0.082388
v 1.067246 0.000000 0.115583
v 1.082294 0.000000 0.146950
v 1.101284 0.000000 0.176097
v 1.124056 0.000000 0.202632
v 1.150451 0.000000 0.226161
v 1.180308 0.000000 0.246293
v 1.213468 0.000000 0.262634
v 1.249772 0.000000 0.274792
v 1.289059 0.000000 0.282375
v 1.331170 0.000000 0.284990
v 1.374668 0.000000 0.282360
v 1.415023 0.000000 0.274738
v 1.452113 0.000000 0.262524
v 1.485816 0.000000 0.246119
v 1.516009 0.000000 0.225924
v 1.542573 0.000000 0.202339
v 1.565384 0.000000 0.175766
v 1.584321 0.000000 0.146604
v 1.599261 0.000000 0.115254
v 1.610084 0.000000 0.082118
v 1.616667 0.000000 0.047595
v 1.618888 0.000000 0.012087
v 1.616608 0.000000 -0.024404
v 1.609874 0.000000 -0.059568
v 1.598847 0.000000 -0.093054
v 1.583685 0.000000 -0.124509
v 1.564549 0.000000 -0.153582
v 1.541598 0.000000 -0.179920
v 1.514992 0.000000 -0.203172
v 1.484891 0.000000 -0.222985
v 1.451455 0.000000 -0.239009
v 1.414842 0.000000 -0.250889
v 1.375214 0.000000 -0.258276
v 1.332730 0.000000 -0.260816
v 1.290916 0.000000 -0.258261
v 1.251758 0.000000 -0.250835
v 1.215442 0.000000 -0.238899
v 1.182156 0.000000 -0.222812
v 1.152087 0.000000 -0.202935
v 1.125420 0.000000 -0.179628
v 1.102344 0.000000 -0.153250
v 1.083045 0.000000 -0.124163
v 1.067709 0.000000 -0.092725
v 1.056523 0.000000 -0.059298
v 1.049675 0.000000 -0.024240
v 1.126103 0.000000 0.012087
v 1.127905 0.000000 -0.016471
v 1.133178 0.000000 -0.043541
v 1.141722 0.000000 -0.068931
v 1.153335 0.000000 -0.092454
v 1.167819 0.000000 -0.113919
v 1.184972 0.000000 -0.133137
v 1.204594 0.000000 -0.149918
v 1.226485 0.000000 -0.164073
v 1.250445 0.000000 -0.175412
v 1.276272 0.000000 -0.183747
v 1.303767 0.000000 -0.188886
v 1.332730 0.000000 -0.190641
v 1.361871 0.000000 -0.188886
v 1.389516 0.000000 -0.183747
v 1.415465 0.000000 -0.175412
v 1.439523 0.000000 -0.164073
v 1.461490 0.000000 -0.149918
v 1.481169 0.000000 -0.133137
v 1.498364 0.000000 -0.113919
v 1.512874 0.000000 -0.092454
v 1.524505 0.000000 -0.068931
v 1.533057 0.000000 -0.043541
v 1.538334 0.000000 -0.016472
v 1.540136 0.000000 0.012087
v 1.538334 0.000000 0.040481
v 1.533057 0.000000 0.067444
v 1.524505 0.000000 0.092776
v 1.512874 0.000000 0.116281
v 1.498364 0.000000 0.137761
v 1.481169 0.000000 0.157018
v 1.461490 0.000000 0.173855
v 1.439523 0.000000 0.188073
v 1.415465 0.000000 0.199476
v 1.389516 0.000000 0.207866
v 1.361871 0.000000 0.213045
v 1.332730 0.000000 0.214815
v 1.303767 0.000000 0.213045
v 1.276272 0.000000 0.207866
v 1.250445 0.000000 0.199476
v 1.226485 0.000000 0.188073
v 1.204594 0.000000 0.173855
v 1.184972 0.000000 0.157018
v 1.167819 0.000000 0.137761
v 1.153335 0.000000 0.116281
v 1.141722 0.000000 0.092776
v 1.133178 0.000000 0.067444
v 1.127905 0.000000 0.040481
v 0.953784 0.000000 -0.253799
v 0.882049 0.000000 -0.253799
v 0.882049 0.000000 0.157895
v 0.521817 0.000000 -0.253799
v 0.460998 0.000000 -0.253799
v 0.460998 0.000000 0.277973
v 0.532733 0.000000 0.277973
v 0.532733 0.000000 -0.131382
v 0.888287 0.000000 0.277973
v 0.953784 0.000000 0.277973
v -0.007615 0.000000 -0.253799
v -0.007615 0.000000 0.277973
v 0.068797 0.000000 0.277973
v 0.068797 0.000000 0.047174
v 0.100766 0.000000 0.047174
v 0.110393 0.000000 0.047483
v 0.119884 0.000000 0.048604
v 0.129397 0.000000 0.050829
v 0.139088 0.000000 0.054452
v 0.149115 0.000000 0.059764
v 0.159635 0.000000 0.067057
v 0.170805 0.000000 0.076625
v 0.182781 0.000000 0.088760
v 0.195722 0.000000 0.103753
v 0.209783 0.000000 0.121898
v 0.225122 0.000000 0.143486
v 0.241896 0.000000 0.168811
v 0.312071 0.000000 0.277973
v 0.403299 0.000000 0.277973
v 0.394606 0.000000 0.265955
v 0.386773 0.000000 0.255122
v 0.379688 0.000000 0.245297
v 0.373236 0.000000 0.236301
v 0.367304 0.000000 0.227954
v 0.361779 0.000000 0.220078
v 0.356545 0.000000 0.212495
v 0.351491 0.000000 0.205025
v 0.346501 0.000000 0.197490
v 0.341462 0.000000 0.189712
v 0.336262 0.000000 0.181512
v 0.330785 0.000000 0.172710
v 0.320859 0.000000 0.156498
v 0.311284 0.000000 0.141001
v 0.301959 0.000000 0.126219
v 0.292780 0.000000 0.112151
v 0.283645 0.000000 0.098799
v 0.274450 0.000000 0.086161
v 0.265092 0.000000 0.074237
v 0.255469 0.000000 0.063029
v 0.245478 0.000000 0.052535
v 0.235016 0.000000 0.042756
v 0.223980 0.000000 0.033692
v 0.212267 0.000000 0.025342
v 0.225973 0.000000 0.019206
v 0.238615 0.000000 0.012123
v 0.250168 0.000000 0.004119
v 0.260610 0.000000 -0.004778
v 0.269913 0.000000 -0.014542
v 0.278056 0.000000 -0.025145
v 0.285012 0.000000 -0.036560
v 0.290759 0.000000 -0.048761
v 0.295271 0.000000 -0.061719
v 0.298524 0.000000 -0.075408
v 0.300493 0.000000 -0.089802
v 0.301155 0.000000 -0.104872
v 0.299774 0.000000 -0.127130
v 0.295690 0.000000 -0.147850
v 0.288996 0.000000 -0.166957
v 0.279785 0.000000 -0.184375
v 0.268148 0.000000 -0.200027
v 0.254177 0.000000 -0.213838
v 0.237964 0.000000 -0.225733
v 0.219602 0.000000 -0.235634
v 0.199182 0.000000 -0.243468
v 0.176796 0.000000 -0.249157
v 0.152537 0.000000 -0.252626
v 0.126497 0.000000 -0.253799
v 0.068797 0.000000 -0.188302
v 0.117920 0.000000 -0.188302
v 0.135522 0.000000 -0.187675
v 0.151325 0.000000 -0.185819
v 0.165386 0.000000 -0.182771
v 0.177757 0.000000 -0.178570
v 0.188492 0.000000 -0.173254
v 0.197647 0.000000 -0.166860
v 0.205274 0.000000 -0.159426
v 0.211429 0.000000 -0.150991
v 0.216165 0.000000 -0.141592
v 0.219537 0.000000 -0.131267
v 0.221598 0.000000 -0.120054
v 0.222403 0.000000 -0.107991
v 0.222075 0.000000 -0.096951
v 0.220620 0.000000 -0.086148
v 0.217920 0.000000 -0.075717
v 0.213855 0.000000 -0.065799
v 0.208307 0.000000 -0.056530
v 0.201156 0.000000 -0.048049
v 0.192283 0.000000 -0.040494
v 0.181569 0.000000 -0.034004
v 0.168895 0.000000 -0.028715
v 0.154141 0.000000 -0.024766
v 0.137189 0.000000 -0.022295
v 0.117920 0.000000 -0.021441
v 0.068797 0.000000 -0.021441
v -0.674279 0.000000 0.012087
v -0.672015 0.000000 0.047759
v -0.665330 0.000000 0.082388
v -0.654384 0.000000 0.115583
v -0.639336 0.000000 0.146950
v -0.620346 0.000000 0.176097
v -0.597574 0.000000 0.202632
v -0.571179 0.000000 0.226161
v -0.541322 0.000000 0.246293
v -0.508161 0.000000 0.262634
v -0.471858 0.000000 0.274792
v -0.432571 0.000000 0.282375
v -0.390460 0.000000 0.284990
v -0.346962 0.000000 0.282360
v -0.306607 0.000000 0.274738
v -0.269517 0.000000 0.262524
v -0.235815 0.000000 0.246119
v -0.205621 0.000000 0.225924
v -0.179057 0.000000 0.202339
v -0.156246 0.000000 0.175766
v -0.137309 0.000000 0.146604
v -0.122369 0.000000 0.115254
v -0.111546 0.000000 0.082118
v -0.104963 0.000000 0.047595
v -0.102742 0.000000 0.012087
v -0.105022 0.000000 -0.024404
v -0.111755 0.000000 -0.059568
v -0.122783 0.000000 -0.093054
v -0.137945 0.000000 -0.124509
v -0.157081 0.000000 -0.153582
v -0.180032 0.000000 -0.179920
v -0.206638 0.000000 -0.203172
v -0.236739 0.000000 -0.222985
v -0.270175 0.000000 -0.239009
v -0.306787 0.000000 -0.250889
v -0.346416 0.000000 -0.258276
v -0.388900 0.000000 -0.260816
v -0.430714 0.000000 -0.258261
v -0.469872 0.000000 -0.250835
v -0.506188 0.000000 -0.238899
v -0.539474 0.000000 -0.222812
v -0.569543 0.000000 -0.202935
v -0.596209 0.000000 -0.179628
v -0.619286 0.000000 -0.153250
v -0.638585 0.000000 -0.124163
v -0.653921 0.000000 -0.092725
v -0.665107 0.000000 -0.059298
v -0.671955 0.000000 -0.024240
v -0.595527 0.000000 0.012087
v -0.593725 0.000000 -0.016471
v -0.588452 0.000000 -0.043541
v -0.579908 0.000000 -0.068931
v -0.568294 0.000000 -0.092454
v -0.553811 0.000000 -0.113919
v -0.536658 0.000000 -0.133137
v -0.517036 0.000000 -0.149918
v -0.495145 0.000000 -0.164073
v -0.471186 0.000000 -0.175412
v -0.445358 0.000000 -0.183747
v -0.417863 0.000000 -0.188886
v -0.388900 0.000000 -0.190641
v -0.359759 0.000000 -0.188886
v -0.332114 0.000000 -0.183747
v -0.306164 0.000000 -0.175412
v -0.282107 0.000000 -0.164073
v -0.260140 0.000000 -0.149918
v -0.240460 0.000000 -0.133137
v -0.223266 0.000000 -0.113919
v -0.208755 0.000000 -0.092454
v -0.197125 0.000000 -0.068931
v -0.188573 0.000000 -0.043541
v -0.183296 0.000000 -0.016472
v -0.181494 0.000000 0.012087
v -0.183296 0.000000 0.040481
v -0.188573 0.000000 0.067444
v -0.197125 0.000000 0.092776
v -0.208755 0.000000 0.116281
v -0.223266 0.000000 0.137761
v -0.240460 0.000000 0.157018
v -0.260140 0.000000 0.173855
v -0.282107 0.000000 0.188073
v -0.306164 0.000000 0.199476
v -0.332114 0.000000 0.207866
v -0.359759 0.000000 0.213045
v -0.388900 0.000000 0.214815
v -0.417863 0.000000 0.213045
v -0.445358 0.000000 0.207866
v -0.471185 0.000000 0.199476
v -0.495145 0.000000 0.188073
v -0.517036 0.000000 0.173855
v -0.536658 0.000000 0.157018
v -0.553811 0.000000 0.137761
v -0.568294 0.000000 0.116281
v -0.579908 0.000000 0.092776
v -0.588452 0.000000 0.067444
v -0.593725 0.000000 0.040481
v -0.768626 0.000000 -0.253799
v -0.845039 0.000000 -0.253799
v -0.845039 0.000000 -0.022221
v -1.142893 0.000000 -0.022221
v -1.142893 0.000000 -0.253799
v -1.219306 0.000000 -0.253799
v -1.219306 0.000000 0.277973
v -1.142893 0.000000 0.277973
v -1.142893 0.000000 0.046395
v -0.845039 0.000000 0.046395
v -0.845039 0.000000 0.277973
v -0.768626 0.000000 0.277973
vn 0.000000 1.000000 0.000000
usemtl None
s off
f 38//1 36//1 37//1
f 38//1 35//1 36//1
f 39//1 35//1 38//1
f 39//1 34//1 35//1
f 40//1 34//1 39//1
f 40//1 33//1 34//1
f 41//1 33//1 40//1
f 41//1 32//1 33//1
f 42//1 32//1 41//1
f 42//1 31//1 32//1
f 43//1 61//1 42//1
f 61//1 31//1 42//1
f 43//1 60//1 61//1
f 62//1 31//1 61//1
f 63//1 31//1 62//1
f 43//1 59//1 60//1
f 64//1 31//1 63//1
f 43//1 58//1 59//1
f 64//1 30//1 31//1
f 44//1 58//1 43//1
f 65//1 30//1 64//1
f 44//1 57//1 58//1
f 66//1 30//1 65//1
f 44//1 56//1 57//1
f 66//1 29//1 30//1
f 45//1 56//1 44//1
f 67//1 29//1 66//1
f 45//1 55//1 56//1
f 68//1 29//1 67//1
f 45//1 54//1 55//1
f 68//1 28//1 29//1
f 46//1 54//1 45//1
f 69//1 28//1 68//1
f 46//1 53//1 54//1
f 69//1 27//1 28//1
f 47//1 53//1 46//1
f 70//1 27//1 69//1
f 47//1 52//1 53//1
f 71//1 27//1 70//1
f 47//1 51//1 52//1
f 71//1 26//1 27//1
f 48//1 51//1 47//1
f 72//1 26//1 71//1
f 48//1 50//1 51//1
f 72//1 25//1 26//1
f 1//1 50//1 48//1
f 73//1 25//1 72//1
f 1//1 49//1 50//1
f 2//1 49//1 1//1
f 2//1 96//1 49//1
f 74//1 25//1 73//1
f 74//1 24//1 25//1
f 2//1 95//1 96//1
f 75//1 24//1 74//1
f 75//1 23//1 24//1
f 3//1 95//1 2//1
f 3//1 94//1 95//1
f 76//1 23//1 75//1
f 76//1 22//1 23//1
f 4//1 94//1 3//1
f 77//1 22//1 76//1
f 4//1 93//1 94//1
f 77//1 21//1 22//1
f 5//1 93//1 4//1
f 78//1 21//1 77//1
f 5//1 92//1 93//1
f 79//1 21//1 78//1
f 5//1 91//1 92//1
f 79//1 20//1 21//1
f 6//1 91//1 5//1
f 80//1 20//1 79//1
f 6//1 90//1 91//1
f 81//1 20//1 80//1
f 6//1 89//1 90//1
f 81//1 19//1 20//1
f 7//1 89//1 6//1
f 82//1 19//1 81//1
f 7//1 88//1 89//1
f 83//1 19//1 82//1
f 7//1 87//1 88//1
f 83//1 18//1 19//1
f 8//1 87//1 7//1
f 84//1 18//1 83//1
f 8//1 86//1 87//1
f 85//1 18//1 84//1
f 8//1 85//1 86//1
f 8//1 18//1 85//1
f 8//1 17//1 18//1
f 9//1 17//1 8//1
f 9//1 16//1 17//1
f 10//1 16//1 9//1
f 10//1 15//1 16//1
f 11//1 15//1 10//1
f 11//1 14//1 15//1
f 12//1 14//1 11//1
f 12//1 13//1 14//1
f 102//1 100//1 101//1
f 102//1 104//1 100//1
f 104//1 99//1 100//1
f 99//1 97//1 98//1
f 99//1 106//1 97//1
f 102//1 103//1 104//1
f 105//1 99//1 104//1
f 105//1 106//1 99//1
f 108//1 174//1 107//1
f 174//1 173//1 107//1
f 174//1 172//1 173//1
f 174//1 171//1 172//1
f 174//1 170//1 171//1
f 174//1 169//1 170//1
f 174//1 168//1 169//1
f 174//1 167//1 168//1
f 174//1 166//1 167//1
f 174//1 175//1 166//1
f 175//1 165//1 166//1
f 108//1 200//1 174//1
f 176//1 165//1 175//1
f 177//1 165//1 176//1
f 178//1 165//1 177//1
f 178//1 164//1 165//1
f 179//1 164//1 178//1
f 180//1 164//1 179//1
f 181//1 164//1 180//1
f 181//1 163//1 164//1
f 182//1 163//1 181//1
f 183//1 163//1 182//1
f 184//1 163//1 183//1
f 184//1 162//1 163//1
f 185//1 162//1 184//1
f 186//1 162//1 185//1
f 186//1 161//1 162//1
f 187//1 161//1 186//1
f 188//1 161//1 187//1
f 188//1 160//1 161//1
f 189//1 160//1 188//1
f 189//1 159//1 160//1
f 190//1 159//1 189//1
f 191//1 159//1 190//1
f 191//1 158//1 159//1
f 192//1 158//1 191//1
f 192//1 157//1 158//1
f 193//1 157//1 192//1
f 193//1 156//1 157//1
f 194//1 156//1 193//1
f 195//1 156//1 194//1
f 195//1 155//1 156//1
f 196//1 155//1 195//1
f 197//1 155//1 196//1
f 197//1 154//1 155//1
f 198//1 154//1 197//1
f 199//1 154//1 198//1
f 108//1 110//1 200//1
f 110//1 199//1 200//1
f 110//1 154//1 199//1
f 110//1 153//1 154//1
f 110//1 152//1 153//1
f 110//1 151//1 152//1
f 110//1 150//1 151//1
f 110//1 149//1 150//1
f 110//1 148//1 149//1
f 110//1 147//1 148//1
f 110//1 111//1 147//1
f 111//1 112//1 147//1
f 112//1 146//1 147//1
f 108//1 109//1 110//1
f 113//1 146//1 112//1
f 114//1 146//1 113//1
f 115//1 146//1 114//1
f 115//1 145//1 146//1
f 116//1 145//1 115//1
f 117//1 145//1 116//1
f 117//1 144//1 145//1
f 118//1 144//1 117//1
f 118//1 143//1 144//1
f 119//1 143//1 118//1
f 119//1 142//1 143//1
f 120//1 142//1 119//1
f 120//1 141//1 142//1
f 121//1 141//1 120//1
f 121//1 140//1 141//1
f 122//1 140//1 121//1
f 122//1 139//1 140//1
f 122//1 138//1 139//1
f 123//1 138//1 122//1
f 123//1 137//1 138//1
f 124//1 137//1 123//1
f 124//1 136//1 137//1
f 124//1 135//1 136//1
f 124//1 134//1 135//1
f 124//1 133//1 134//1
f 124//1 132//1 133//1
f 124//1 131//1 132//1
f 124//1 130//1 131//1
f 124//1 129//1 130//1
f 124//1 128//1 129//1
f 124//1 127//1 128//1
f 124//1 126//1 127//1
f 124//1 125//1 126//1
f 238//1 236//1 237//1
f 238//1 235//1 236//1
f 239//1 235//1 238//1
f 239//1 234//1 235//1
f 240//1 234//1 239//1
f 240//1 233//1 234//1
f 241//1 233//1 240//1
f 241//1 232//1 233//1
f 242//1 232//1 241//1
f 242//1 231//1 232//1
f 243//1 261//1 242//1
f 261//1 231//1 242//1
f 243//1 260//1 261//1
f 262//1 231//1 261//1
f 263//1 231//1 262//1
f 243//1 259//1 260//1
f 264//1 231//1 263//1
f 243//1 258//1 259//1
f 264//1 230//1 231//1
f 244//1 258//1 243//1
f 265//1 230//1 264//1
f 244//1 257//1 258//1
f 266//1 230//1 265//1
f 244//1 256//1 257//1
f 266//1 229//1 230//1
f 245//1 256//1 244//1
f 267//1 229//1 266//1
f 245//1 255//1 256//1
f 268//1 229//1 267//1
f 245//1 254//1 255//1
f 268//1 228//1 229//1
f 246//1 254//1 245//1
f 269//1 228//1 268//1
f 246//1 253//1 254//1
f 269//1 227//1 228//1
f 247//1 253//1 246//1
f 270//1 227//1 269//1
f 247//1 252//1 253//1
f 271//1 227//1 270//1
f 247//1 251//1 252//1
f 271//1 226//1 227//1
f 248//1 251//1 247//1
f 272//1 226//1 271//1
f 248//1 250//1 251//1
f 272//1 225//1 226//1
f 201//1 250//1 248//1
f 273//1 225//1 272//1
f 201//1 249//1 250//1
f 202//1 249//1 201//1
f 202//1 296//1 249//1
f 274//1 225//1 273//1
f 274//1 224//1 225//1
f 202//1 295//1 296//1
f 275//1 224//1 274//1
f 275//1 223//1 224//1
f 203//1 295//1 202//1
f 203//1 294//1 295//1
f 276//1 223//1 275//1
f 276//1 222//1 223//1
f 204//1 294//1 203//1
f 277//1 222//1 276//1
f 204//1 293//1 294//1
f 277//1 221//1 222//1
f 205//1 293//1 204//1
f 278//1 221//1 277//1
f 205//1 292//1 293//1
f 279//1 221//1 278//1
f 205//1 291//1 292//1
f 279//1 220//1 221//1
f 206//1 291//1 205//1
f 280//1 220//1 279//1
f 206//1 290//1 291//1
f 281//1 220//1 280//1
f 206//1 289//1 290//1
f 281//1 219//1 220//1
f 207//1 289//1 206//1
f 282//1 219//1 281//1
f 207//1 288//1 289//1
f 283//1 219//1 282//1
f 207//1 287//1 288//1
f 283//1 218//1 219//1
f 208//1 287//1 207//1
f 284//1 218//1 283//1
f 208//1 286//1 287//1
f 285//1 218//1 284//1
f 208//1 285//1 286//1
f 208//1 218//1 285//1
f 208//1 217//1 218//1
f 209//1 217//1 208//1
f 209//1 216//1 217//1
f 210//1 216//1 209//1
f 210//1 215//1 216//1
f 211//1 215//1 210//1
f 211//1 214//1 215//1
f 212//1 214//1 211//1
f 212//1 213//1 214//1
f 303//1 301//1 302//1
f 303//1 300//1 301//1
f 299//1 297//1 298//1
f 299//1 308//1 297//1
f 303//1 305//1 300//1
f 305//1 299//1 300//1
f 305//1 306//1 299//1
f 306//1 308//1 299//1
f 303//1 304//1 305//1
f 307//1 308//1 306//1
